<mxfile host="app.diagrams.net" agent="Mozilla/5.0 (X11; Linux x86_64; rv:129.0) Gecko/20100101 Firefox/129.0" version="24.7.8">
  <diagram name="PÃ¡gina-1" id="tR1EdtiZDkJw8TBBvZIM">
    <mxGraphModel dx="765" dy="417" grid="1" gridSize="10" guides="1" tooltips="1" connect="1" arrows="1" fold="1" page="1" pageScale="1" pageWidth="827" pageHeight="1169" math="0" shadow="0">
      <root>
        <mxCell id="0" />
        <mxCell id="1" parent="0" />
        <mxCell id="Uj5GcxIc73tx7QG3Yn17-50" value="" style="rounded=1;whiteSpace=wrap;html=1;fillColor=none;" vertex="1" parent="1">
          <mxGeometry x="280" y="120" width="419" height="203.84" as="geometry" />
        </mxCell>
        <mxCell id="Uj5GcxIc73tx7QG3Yn17-51" value="" style="rounded=1;whiteSpace=wrap;html=1;fillColor=none;dashed=1;" vertex="1" parent="1">
          <mxGeometry x="355" y="150" width="320" height="160" as="geometry" />
        </mxCell>
        <mxCell id="Uj5GcxIc73tx7QG3Yn17-17" value="" style="rounded=1;whiteSpace=wrap;html=1;" vertex="1" parent="1">
          <mxGeometry x="472" y="172" width="56" height="120" as="geometry" />
        </mxCell>
        <mxCell id="Uj5GcxIc73tx7QG3Yn17-13" value="" style="rounded=1;whiteSpace=wrap;html=1;" vertex="1" parent="1">
          <mxGeometry x="373" y="172" width="60" height="120" as="geometry" />
        </mxCell>
        <mxCell id="Uj5GcxIc73tx7QG3Yn17-2" value="" style="image;html=1;image=img/lib/clip_art/computers/Monitor_Tower_128x128.png" vertex="1" parent="1">
          <mxGeometry x="90" y="211.17" width="40" height="52" as="geometry" />
        </mxCell>
        <mxCell id="Uj5GcxIc73tx7QG3Yn17-3" value="" style="endArrow=classic;html=1;rounded=0;" edge="1" parent="1">
          <mxGeometry width="50" height="50" relative="1" as="geometry">
            <mxPoint x="140" y="235" as="sourcePoint" />
            <mxPoint x="180" y="235" as="targetPoint" />
          </mxGeometry>
        </mxCell>
        <mxCell id="Uj5GcxIc73tx7QG3Yn17-4" value="" style="aspect=fixed;sketch=0;html=1;dashed=0;whitespace=wrap;verticalLabelPosition=bottom;verticalAlign=top;fillColor=#2875E2;strokeColor=#ffffff;points=[[0.005,0.63,0],[0.1,0.2,0],[0.9,0.2,0],[0.5,0,0],[0.995,0.63,0],[0.72,0.99,0],[0.5,1,0],[0.28,0.99,0]];shape=mxgraph.kubernetes.icon2;kubernetesLabel=1;prIcon=ing" vertex="1" parent="1">
          <mxGeometry x="286" y="209" width="50" height="48" as="geometry" />
        </mxCell>
        <mxCell id="Uj5GcxIc73tx7QG3Yn17-5" value="" style="aspect=fixed;sketch=0;html=1;dashed=0;whitespace=wrap;verticalLabelPosition=bottom;verticalAlign=top;fillColor=#2875E2;strokeColor=#ffffff;points=[[0.005,0.63,0],[0.1,0.2,0],[0.9,0.2,0],[0.5,0,0],[0.995,0.63,0],[0.72,0.99,0],[0.5,1,0],[0.28,0.99,0]];shape=mxgraph.kubernetes.icon2;kubernetesLabel=1;prIcon=svc" vertex="1" parent="1">
          <mxGeometry x="362.25" y="225" width="20.41" height="19.59" as="geometry" />
        </mxCell>
        <mxCell id="Uj5GcxIc73tx7QG3Yn17-9" value="" style="endArrow=classic;html=1;rounded=0;" edge="1" parent="1">
          <mxGeometry width="50" height="50" relative="1" as="geometry">
            <mxPoint x="247" y="236.5" as="sourcePoint" />
            <mxPoint x="286" y="237" as="targetPoint" />
          </mxGeometry>
        </mxCell>
        <mxCell id="Uj5GcxIc73tx7QG3Yn17-14" value="" style="aspect=fixed;sketch=0;html=1;dashed=0;whitespace=wrap;verticalLabelPosition=bottom;verticalAlign=top;fillColor=#2875E2;strokeColor=#ffffff;points=[[0.005,0.63,0],[0.1,0.2,0],[0.9,0.2,0],[0.5,0,0],[0.995,0.63,0],[0.72,0.99,0],[0.5,1,0],[0.28,0.99,0]];shape=mxgraph.kubernetes.icon2;prIcon=deploy" vertex="1" parent="1">
          <mxGeometry x="388.66" y="179.56" width="29.17" height="28" as="geometry" />
        </mxCell>
        <mxCell id="Uj5GcxIc73tx7QG3Yn17-15" value="" style="aspect=fixed;sketch=0;html=1;dashed=0;whitespace=wrap;verticalLabelPosition=bottom;verticalAlign=top;fillColor=#2875E2;strokeColor=#ffffff;points=[[0.005,0.63,0],[0.1,0.2,0],[0.9,0.2,0],[0.5,0,0],[0.995,0.63,0],[0.72,0.99,0],[0.5,1,0],[0.28,0.99,0]];shape=mxgraph.kubernetes.icon2;prIcon=pod" vertex="1" parent="1">
          <mxGeometry x="392" y="222" width="22.5" height="21.6" as="geometry" />
        </mxCell>
        <mxCell id="Uj5GcxIc73tx7QG3Yn17-16" value="" style="endArrow=none;dashed=1;html=1;dashPattern=1 3;strokeWidth=2;rounded=0;entryX=0.5;entryY=1;entryDx=0;entryDy=0;entryPerimeter=0;exitX=0.5;exitY=0;exitDx=0;exitDy=0;exitPerimeter=0;" edge="1" parent="1" source="Uj5GcxIc73tx7QG3Yn17-15" target="Uj5GcxIc73tx7QG3Yn17-14">
          <mxGeometry width="50" height="50" relative="1" as="geometry">
            <mxPoint x="408" y="242" as="sourcePoint" />
            <mxPoint x="398" y="222" as="targetPoint" />
          </mxGeometry>
        </mxCell>
        <mxCell id="Uj5GcxIc73tx7QG3Yn17-18" value="" style="aspect=fixed;sketch=0;html=1;dashed=0;whitespace=wrap;verticalLabelPosition=bottom;verticalAlign=top;fillColor=#2875E2;strokeColor=#ffffff;points=[[0.005,0.63,0],[0.1,0.2,0],[0.9,0.2,0],[0.5,0,0],[0.995,0.63,0],[0.72,0.99,0],[0.5,1,0],[0.28,0.99,0]];shape=mxgraph.kubernetes.icon2;kubernetesLabel=1;prIcon=svc" vertex="1" parent="1">
          <mxGeometry x="459" y="240" width="26" height="24.96" as="geometry" />
        </mxCell>
        <mxCell id="Uj5GcxIc73tx7QG3Yn17-19" value="" style="endArrow=none;dashed=1;html=1;dashPattern=1 3;strokeWidth=2;rounded=0;entryX=0.005;entryY=0.63;entryDx=0;entryDy=0;entryPerimeter=0;exitX=0.987;exitY=0.7;exitDx=0;exitDy=0;exitPerimeter=0;" edge="1" parent="1" source="Uj5GcxIc73tx7QG3Yn17-13" target="Uj5GcxIc73tx7QG3Yn17-18">
          <mxGeometry width="50" height="50" relative="1" as="geometry">
            <mxPoint x="417.58000000000004" y="273" as="sourcePoint" />
            <mxPoint x="467.58000000000004" y="223" as="targetPoint" />
          </mxGeometry>
        </mxCell>
        <mxCell id="Uj5GcxIc73tx7QG3Yn17-24" value="" style="aspect=fixed;sketch=0;html=1;dashed=0;whitespace=wrap;verticalLabelPosition=bottom;verticalAlign=top;fillColor=#2875E2;strokeColor=#ffffff;points=[[0.005,0.63,0],[0.1,0.2,0],[0.9,0.2,0],[0.5,0,0],[0.995,0.63,0],[0.72,0.99,0],[0.5,1,0],[0.28,0.99,0]];shape=mxgraph.kubernetes.icon2;prIcon=pod" vertex="1" parent="1">
          <mxGeometry x="488" y="219.76" width="23.5" height="22.56" as="geometry" />
        </mxCell>
        <mxCell id="Uj5GcxIc73tx7QG3Yn17-25" value="" style="endArrow=none;dashed=1;html=1;dashPattern=1 3;strokeWidth=2;rounded=0;" edge="1" parent="1" source="Uj5GcxIc73tx7QG3Yn17-24" target="Uj5GcxIc73tx7QG3Yn17-23">
          <mxGeometry width="50" height="50" relative="1" as="geometry">
            <mxPoint x="531.71" y="252" as="sourcePoint" />
            <mxPoint x="531.71" y="223" as="targetPoint" />
          </mxGeometry>
        </mxCell>
        <mxCell id="Uj5GcxIc73tx7QG3Yn17-26" value="" style="aspect=fixed;sketch=0;html=1;dashed=0;whitespace=wrap;verticalLabelPosition=bottom;verticalAlign=top;fillColor=#2875E2;strokeColor=#ffffff;points=[[0.005,0.63,0],[0.1,0.2,0],[0.9,0.2,0],[0.5,0,0],[0.995,0.63,0],[0.72,0.99,0],[0.5,1,0],[0.28,0.99,0]];shape=mxgraph.kubernetes.icon2;kubernetesLabel=1;prIcon=cm" vertex="1" parent="1">
          <mxGeometry x="393" y="261.6" width="20" height="19.2" as="geometry" />
        </mxCell>
        <mxCell id="Uj5GcxIc73tx7QG3Yn17-27" value="" style="endArrow=none;dashed=1;html=1;dashPattern=1 3;strokeWidth=2;rounded=0;entryX=0.524;entryY=0.985;entryDx=0;entryDy=0;entryPerimeter=0;exitX=0.529;exitY=0.091;exitDx=0;exitDy=0;exitPerimeter=0;" edge="1" parent="1" source="Uj5GcxIc73tx7QG3Yn17-26" target="Uj5GcxIc73tx7QG3Yn17-15">
          <mxGeometry width="50" height="50" relative="1" as="geometry">
            <mxPoint x="402.76" y="265.6" as="sourcePoint" />
            <mxPoint x="402.76" y="254.60000000000002" as="targetPoint" />
          </mxGeometry>
        </mxCell>
        <mxCell id="Uj5GcxIc73tx7QG3Yn17-30" value="" style="aspect=fixed;sketch=0;html=1;dashed=0;whitespace=wrap;verticalLabelPosition=bottom;verticalAlign=top;fillColor=#2875E2;strokeColor=#ffffff;points=[[0.005,0.63,0],[0.1,0.2,0],[0.9,0.2,0],[0.5,0,0],[0.995,0.63,0],[0.72,0.99,0],[0.5,1,0],[0.28,0.99,0]];shape=mxgraph.kubernetes.icon2;kubernetesLabel=1;prIcon=secret" vertex="1" parent="1">
          <mxGeometry x="490.75" y="268.6" width="20" height="19.2" as="geometry" />
        </mxCell>
        <mxCell id="Uj5GcxIc73tx7QG3Yn17-31" value="" style="endArrow=none;dashed=1;html=1;dashPattern=1 3;strokeWidth=2;rounded=0;entryX=0.49;entryY=0.886;entryDx=0;entryDy=0;entryPerimeter=0;exitX=0.5;exitY=0;exitDx=0;exitDy=0;exitPerimeter=0;" edge="1" parent="1" source="Uj5GcxIc73tx7QG3Yn17-30" target="Uj5GcxIc73tx7QG3Yn17-24">
          <mxGeometry width="50" height="50" relative="1" as="geometry">
            <mxPoint x="500" y="252" as="sourcePoint" />
            <mxPoint x="532" y="235" as="targetPoint" />
          </mxGeometry>
        </mxCell>
        <mxCell id="Uj5GcxIc73tx7QG3Yn17-23" value="" style="aspect=fixed;sketch=0;html=1;dashed=0;whitespace=wrap;verticalLabelPosition=bottom;verticalAlign=top;fillColor=#2875E2;strokeColor=#ffffff;points=[[0.005,0.63,0],[0.1,0.2,0],[0.9,0.2,0],[0.5,0,0],[0.995,0.63,0],[0.72,0.99,0],[0.5,1,0],[0.28,0.99,0]];shape=mxgraph.kubernetes.icon2;prIcon=deploy" vertex="1" parent="1">
          <mxGeometry x="489" y="175.4" width="21.3" height="20.44" as="geometry" />
        </mxCell>
        <mxCell id="Uj5GcxIc73tx7QG3Yn17-33" value="" style="rounded=1;whiteSpace=wrap;html=1;" vertex="1" parent="1">
          <mxGeometry x="568" y="172" width="90" height="120" as="geometry" />
        </mxCell>
        <mxCell id="Uj5GcxIc73tx7QG3Yn17-35" value="" style="aspect=fixed;sketch=0;html=1;dashed=0;whitespace=wrap;verticalLabelPosition=bottom;verticalAlign=top;fillColor=#2875E2;strokeColor=#ffffff;points=[[0.005,0.63,0],[0.1,0.2,0],[0.9,0.2,0],[0.5,0,0],[0.995,0.63,0],[0.72,0.99,0],[0.5,1,0],[0.28,0.99,0]];shape=mxgraph.kubernetes.icon2;prIcon=deploy" vertex="1" parent="1">
          <mxGeometry x="602.35" y="175.4" width="21.3" height="20.44" as="geometry" />
        </mxCell>
        <mxCell id="Uj5GcxIc73tx7QG3Yn17-36" value="" style="aspect=fixed;sketch=0;html=1;dashed=0;whitespace=wrap;verticalLabelPosition=bottom;verticalAlign=top;fillColor=#2875E2;strokeColor=#ffffff;points=[[0.005,0.63,0],[0.1,0.2,0],[0.9,0.2,0],[0.5,0,0],[0.995,0.63,0],[0.72,0.99,0],[0.5,1,0],[0.28,0.99,0]];shape=mxgraph.kubernetes.icon2;prIcon=pod" vertex="1" parent="1">
          <mxGeometry x="602.35" y="207.56" width="20" height="19.2" as="geometry" />
        </mxCell>
        <mxCell id="Uj5GcxIc73tx7QG3Yn17-37" value="" style="aspect=fixed;sketch=0;html=1;dashed=0;whitespace=wrap;verticalLabelPosition=bottom;verticalAlign=top;fillColor=#2875E2;strokeColor=#ffffff;points=[[0.005,0.63,0],[0.1,0.2,0],[0.9,0.2,0],[0.5,0,0],[0.995,0.63,0],[0.72,0.99,0],[0.5,1,0],[0.28,0.99,0]];shape=mxgraph.kubernetes.icon2;kubernetesLabel=1;prIcon=pvc" vertex="1" parent="1">
          <mxGeometry x="632.66" y="241.79000000000002" width="24.34" height="23.38" as="geometry" />
        </mxCell>
        <mxCell id="Uj5GcxIc73tx7QG3Yn17-38" value="" style="sketch=0;html=1;dashed=0;whitespace=wrap;verticalLabelPosition=bottom;verticalAlign=top;fillColor=#2875E2;strokeColor=#ffffff;points=[[0.005,0.63,0],[0.1,0.2,0],[0.9,0.2,0],[0.5,0,0],[0.995,0.63,0],[0.72,0.99,0],[0.5,1,0],[0.28,0.99,0]];shape=mxgraph.kubernetes.icon2;kubernetesLabel=1;prIcon=pv" vertex="1" parent="1">
          <mxGeometry x="601.35" y="241" width="24.35" height="23.38" as="geometry" />
        </mxCell>
        <mxCell id="Uj5GcxIc73tx7QG3Yn17-39" value="" style="aspect=fixed;sketch=0;html=1;dashed=0;whitespace=wrap;verticalLabelPosition=bottom;verticalAlign=top;fillColor=#2875E2;strokeColor=#ffffff;points=[[0.005,0.63,0],[0.1,0.2,0],[0.9,0.2,0],[0.5,0,0],[0.995,0.63,0],[0.72,0.99,0],[0.5,1,0],[0.28,0.99,0]];shape=mxgraph.kubernetes.icon2;kubernetesLabel=1;prIcon=cm" vertex="1" parent="1">
          <mxGeometry x="570" y="241.25" width="24.35" height="23.37" as="geometry" />
        </mxCell>
        <mxCell id="Uj5GcxIc73tx7QG3Yn17-40" value="" style="endArrow=none;dashed=1;html=1;dashPattern=1 3;strokeWidth=2;rounded=0;entryX=0.5;entryY=1;entryDx=0;entryDy=0;entryPerimeter=0;exitX=0.5;exitY=0;exitDx=0;exitDy=0;exitPerimeter=0;" edge="1" parent="1" source="Uj5GcxIc73tx7QG3Yn17-36" target="Uj5GcxIc73tx7QG3Yn17-35">
          <mxGeometry width="50" height="50" relative="1" as="geometry">
            <mxPoint x="557.18" y="245.83999999999997" as="sourcePoint" />
            <mxPoint x="607.18" y="195.84" as="targetPoint" />
          </mxGeometry>
        </mxCell>
        <mxCell id="Uj5GcxIc73tx7QG3Yn17-41" value="" style="endArrow=none;dashed=1;html=1;dashPattern=1 3;strokeWidth=2;rounded=0;entryX=0.5;entryY=1;entryDx=0;entryDy=0;entryPerimeter=0;exitX=0.5;exitY=0;exitDx=0;exitDy=0;exitPerimeter=0;" edge="1" parent="1" source="Uj5GcxIc73tx7QG3Yn17-39" target="Uj5GcxIc73tx7QG3Yn17-36">
          <mxGeometry width="50" height="50" relative="1" as="geometry">
            <mxPoint x="568" y="282" as="sourcePoint" />
            <mxPoint x="618" y="232" as="targetPoint" />
          </mxGeometry>
        </mxCell>
        <mxCell id="Uj5GcxIc73tx7QG3Yn17-42" value="" style="endArrow=none;dashed=1;html=1;dashPattern=1 3;strokeWidth=2;rounded=0;entryX=0.5;entryY=1;entryDx=0;entryDy=0;entryPerimeter=0;exitX=0.5;exitY=0;exitDx=0;exitDy=0;exitPerimeter=0;" edge="1" parent="1" source="Uj5GcxIc73tx7QG3Yn17-38" target="Uj5GcxIc73tx7QG3Yn17-36">
          <mxGeometry width="50" height="50" relative="1" as="geometry">
            <mxPoint x="578" y="292" as="sourcePoint" />
            <mxPoint x="628" y="242" as="targetPoint" />
          </mxGeometry>
        </mxCell>
        <mxCell id="Uj5GcxIc73tx7QG3Yn17-43" value="" style="endArrow=none;dashed=1;html=1;dashPattern=1 3;strokeWidth=2;rounded=0;entryX=0.5;entryY=1;entryDx=0;entryDy=0;entryPerimeter=0;exitX=0.5;exitY=0;exitDx=0;exitDy=0;exitPerimeter=0;" edge="1" parent="1" source="Uj5GcxIc73tx7QG3Yn17-37" target="Uj5GcxIc73tx7QG3Yn17-36">
          <mxGeometry width="50" height="50" relative="1" as="geometry">
            <mxPoint x="588" y="302" as="sourcePoint" />
            <mxPoint x="638" y="252" as="targetPoint" />
          </mxGeometry>
        </mxCell>
        <mxCell id="Uj5GcxIc73tx7QG3Yn17-45" value="" style="sketch=0;html=1;dashed=0;whitespace=wrap;verticalLabelPosition=bottom;verticalAlign=top;fillColor=#2875E2;strokeColor=#ffffff;points=[[0.005,0.63,0],[0.1,0.2,0],[0.9,0.2,0],[0.5,0,0],[0.995,0.63,0],[0.72,0.99,0],[0.5,1,0],[0.28,0.99,0]];shape=mxgraph.kubernetes.icon2;kubernetesLabel=1;prIcon=ns" vertex="1" parent="1">
          <mxGeometry x="374" y="128.16" width="40" height="35.16" as="geometry" />
        </mxCell>
        <mxCell id="Uj5GcxIc73tx7QG3Yn17-55" value="" style="endArrow=classic;startArrow=classic;html=1;rounded=0;" edge="1" parent="1">
          <mxGeometry width="50" height="50" relative="1" as="geometry">
            <mxPoint x="528" y="252.3" as="sourcePoint" />
            <mxPoint x="568" y="252.3" as="targetPoint" />
          </mxGeometry>
        </mxCell>
        <mxCell id="Uj5GcxIc73tx7QG3Yn17-56" value="&lt;div&gt;Postgres DB&lt;/div&gt;" style="text;html=1;align=center;verticalAlign=middle;resizable=0;points=[];autosize=1;strokeColor=none;fillColor=none;" vertex="1" parent="1">
          <mxGeometry x="568" y="285.8" width="90" height="30" as="geometry" />
        </mxCell>
        <mxCell id="Uj5GcxIc73tx7QG3Yn17-57" value="API" style="text;html=1;align=center;verticalAlign=middle;resizable=0;points=[];autosize=1;strokeColor=none;fillColor=none;" vertex="1" parent="1">
          <mxGeometry x="479" y="287.8" width="40" height="30" as="geometry" />
        </mxCell>
        <mxCell id="Uj5GcxIc73tx7QG3Yn17-58" value="Frontend" style="text;html=1;align=center;verticalAlign=middle;resizable=0;points=[];autosize=1;strokeColor=none;fillColor=none;" vertex="1" parent="1">
          <mxGeometry x="367.25" y="286.8" width="70" height="30" as="geometry" />
        </mxCell>
        <mxCell id="Uj5GcxIc73tx7QG3Yn17-59" value="" style="endArrow=none;dashed=1;html=1;dashPattern=1 3;strokeWidth=2;rounded=0;exitX=0.94;exitY=0.611;exitDx=0;exitDy=0;exitPerimeter=0;entryX=0.005;entryY=0.63;entryDx=0;entryDy=0;entryPerimeter=0;" edge="1" parent="1" source="Uj5GcxIc73tx7QG3Yn17-4" target="Uj5GcxIc73tx7QG3Yn17-5">
          <mxGeometry width="50" height="50" relative="1" as="geometry">
            <mxPoint x="340" y="290" as="sourcePoint" />
            <mxPoint x="390" y="240" as="targetPoint" />
          </mxGeometry>
        </mxCell>
        <mxCell id="Uj5GcxIc73tx7QG3Yn17-60" value="" style="shape=image;verticalLabelPosition=bottom;labelBackgroundColor=default;verticalAlign=top;aspect=fixed;imageAspect=0;image=https://user-images.githubusercontent.com/19824574/41482054-47a3a702-70a2-11e8-9561-de51c5f71220.png;" vertex="1" parent="1">
          <mxGeometry x="616.66" y="96.29000000000002" width="39" height="37.87" as="geometry" />
        </mxCell>
        <mxCell id="Uj5GcxIc73tx7QG3Yn17-62" value="" style="shape=image;verticalLabelPosition=bottom;labelBackgroundColor=default;verticalAlign=top;aspect=fixed;imageAspect=0;image=https://icon-library.com/images/load-balancer-icon/load-balancer-icon-11.jpg;" vertex="1" parent="1">
          <mxGeometry x="185" y="207.70999999999998" width="57.25" height="57.25" as="geometry" />
        </mxCell>
        <mxCell id="Uj5GcxIc73tx7QG3Yn17-63" value="Load Balancer" style="text;html=1;align=center;verticalAlign=middle;resizable=0;points=[];autosize=1;strokeColor=none;fillColor=none;" vertex="1" parent="1">
          <mxGeometry x="168" y="258.17" width="100" height="30" as="geometry" />
        </mxCell>
      </root>
    </mxGraphModel>
  </diagram>
</mxfile>
